<svg width="105" height="36" viewBox="0 0 105 36" fill="none" xmlns="http://www.w3.org/2000/svg">
<rect x="1.30273" y="0.5" width="103.197" height="35" rx="2.5" fill="#B8F9AD" stroke="black" />
<path d="M15.6406 12.5703L12.5469 22H10.0547L14.2812 10.625H15.8672L15.6406 12.5703ZM18.2109 22L15.1094 12.5703L14.8594 10.625H16.4609L20.7109 22H18.2109ZM18.0703 17.7656V19.6016H12.0625V17.7656H18.0703ZM25.5778 22H23.1012L23.1169 20.1719H25.5778C26.1924 20.1719 26.7106 20.0339 27.1325 19.7578C27.5544 19.4766 27.8721 19.0677 28.0856 18.5312C28.3044 17.9948 28.4137 17.3464 28.4137 16.5859V16.0312C28.4137 15.4479 28.3512 14.9349 28.2262 14.4922C28.1065 14.0495 27.9268 13.6771 27.6872 13.375C27.4476 13.0729 27.1533 12.8464 26.8044 12.6953C26.4554 12.5391 26.0544 12.4609 25.6012 12.4609H23.0544V10.625H25.6012C26.3617 10.625 27.057 10.7552 27.6872 11.0156C28.3226 11.2708 28.8721 11.638 29.3356 12.1172C29.7992 12.5964 30.1559 13.1693 30.4059 13.8359C30.6611 14.4974 30.7887 15.2344 30.7887 16.0469V16.5859C30.7887 17.3932 30.6611 18.1302 30.4059 18.7969C30.1559 19.4635 29.7992 20.0365 29.3356 20.5156C28.8773 20.9896 28.3278 21.3568 27.6872 21.6172C27.0518 21.8724 26.3486 22 25.5778 22ZM24.4294 10.625V22H22.0856V10.625H24.4294ZM36.3041 22H33.8275L33.8431 20.1719H36.3041C36.9186 20.1719 37.4369 20.0339 37.8587 19.7578C38.2806 19.4766 38.5983 19.0677 38.8119 18.5312C39.0306 17.9948 39.14 17.3464 39.14 16.5859V16.0312C39.14 15.4479 39.0775 14.9349 38.9525 14.4922C38.8327 14.0495 38.653 13.6771 38.4134 13.375C38.1739 13.0729 37.8796 12.8464 37.5306 12.6953C37.1817 12.5391 36.7806 12.4609 36.3275 12.4609H33.7806V10.625H36.3275C37.0879 10.625 37.7832 10.7552 38.4134 11.0156C39.0489 11.2708 39.5983 11.638 40.0619 12.1172C40.5254 12.5964 40.8822 13.1693 41.1322 13.8359C41.3874 14.4974 41.515 15.2344 41.515 16.0469V16.5859C41.515 17.3932 41.3874 18.1302 41.1322 18.7969C40.8822 19.4635 40.5254 20.0365 40.0619 20.5156C39.6035 20.9896 39.0541 21.3568 38.4134 21.6172C37.778 21.8724 37.0749 22 36.3041 22ZM35.1556 10.625V22H32.8119V10.625H35.1556Z" fill="black"/>
<path d="M91.4922 13.4961V16.4375H79.7969V13.4961H91.4922ZM87.25 8.86719V21.2891H84.0508V8.86719H87.25Z" fill="black"/>
</svg>
