<svg width="47" height="34" viewBox="0 0 47 34" fill="none" xmlns="http://www.w3.org/2000/svg">
<path d="M15.7648 27.8713L3.26271 15.5263C3.08766 15.3473 2.87825 15.2044 2.64672 15.1061C2.4152 15.0079 2.16618 14.9562 1.9142 14.954C1.66223 14.9518 1.41233 14.9993 1.17911 15.0935C0.945891 15.1878 0.734008 15.327 0.555827 15.5031C0.377645 15.6791 0.236734 15.8885 0.141316 16.1189C0.045897 16.3494 -0.00211796 16.5963 7.1652e-05 16.8452C0.00226126 17.0942 0.0546121 17.3402 0.154069 17.569C0.253526 17.7977 0.398098 18.0046 0.579349 18.1776L15.761 33.1776L46.1244 3.17758C46.4701 2.82396 46.6614 2.35033 46.6571 1.85871C46.6527 1.36709 46.4532 0.896816 46.1013 0.549175C45.7495 0.201535 45.2735 0.00434292 44.7759 7.088e-05C44.2783 -0.00420116 43.799 0.184788 43.4411 0.526335L15.761 27.8713H15.7648Z" fill="black"/>
</svg>
