<svg width="221" height="314" viewBox="0 0 221 314" fill="none" xmlns="http://www.w3.org/2000/svg">
<path d="M103.688 303.534L12.6519 89.4151L119.229 11.6128L209.738 199.039L103.688 303.534Z" stroke="black" stroke-width="2"/>
<path d="M106.921 279.729L34.7422 99.6861L116.135 36.0535L190.799 191.809L106.921 279.729Z" stroke="black" stroke-width="2"/>
<path d="M108.053 274.691L37.8019 100.802L115.314 40.7762L186.403 191.405L108.053 274.691Z" stroke="black"/>
<path d="M25.8929 255.466L8.90703 95.1301L12.7889 97.4374L15.7095 104.116L32.622 263.759L25.8929 255.466Z" stroke="black"/>
<path d="M38.0968 259.335L33.6751 264.223L16.5046 106.339L23.7031 123.468L38.0968 259.335Z" stroke="black"/>
<path d="M8.37749 94.4525L7.56897 86.8205L11.3986 89.3174L12.1637 96.5393L8.37749 94.4525Z" stroke="black"/>
<path d="M7.8344 85.815L115.305 8.48406L118.657 10.179L12.3669 88.893L7.8344 85.815Z" stroke="black"/>
<rect x="0.566519" y="0.414546" width="7.31144" height="3.3133" rx="1.5" transform="matrix(0.987085 -0.1602 0.145954 0.989291 55.6597 231.138)" stroke="black"/>
<rect x="0.395635" y="0.623635" width="7.45439" height="3.25755" rx="1.5" transform="matrix(0.964941 0.262466 -0.173672 0.984803 50.4054 228.935)" stroke="black"/>
<rect x="0.17143" y="0.73711" width="7.84335" height="3.097" rx="1.5" transform="matrix(0.808105 0.589038 -0.465245 0.885182 45.8836 225.266)" stroke="black"/>
<rect x="0.0632986" y="0.755577" width="8.04112" height="3.01002" rx="1.5" transform="matrix(0.713017 0.701146 -0.58642 0.810007 42.3695 220.131)" stroke="black"/>
<rect x="0.0632986" y="0.755577" width="8.04112" height="3.01002" rx="1.5" transform="matrix(0.713017 0.701146 -0.58642 0.810007 37.2327 216.738)" stroke="black"/>
<rect x="-0.251454" y="0.695025" width="8.52999" height="2.77761" rx="1.3888" transform="matrix(0.381947 0.924184 -0.884855 0.465867 35.8971 211.025)" stroke="black"/>
<rect x="0.649117" y="0.131017" width="6.94539" height="3.19382" rx="1.5" transform="matrix(0.797369 -0.603492 0.500866 0.865525 61.2886 231.687)" stroke="black"/>
<path d="M99.7891 303.374L12.6435 97.4148L11.9331 90.7087L102.964 305.205L99.7891 303.374Z" stroke="black" stroke-width="0.5"/>
</svg>
