<svg width="141" height="83" viewBox="0 0 141 83" fill="none" xmlns="http://www.w3.org/2000/svg">
<path d="M63.8901 1.57704H63.9382L63.9863 1.57416C94.2833 -0.237707 113.236 2.2668 124.588 8.68888C130.205 11.8668 133.965 16.008 136.344 21.1209C138.737 26.2657 139.773 32.485 139.773 39.8592C139.773 47.0829 137.956 53.0046 134.582 57.9105C131.198 62.831 126.177 66.832 119.612 70.0815C106.444 76.6002 87.3605 79.956 63.8285 81.7688C36.9143 81.7633 23.1525 78.1122 15.2238 71.2788C7.30153 64.4506 4.85845 54.1977 1.46407 39.5827C0.647025 32.4808 0.878363 26.6478 2.40133 21.8756C3.91425 17.135 6.72821 13.3552 11.2646 10.3806C15.8449 7.37728 22.2331 5.16279 30.9133 3.70845C39.5839 2.2557 50.4424 1.57704 63.8901 1.57704Z" stroke="black" stroke-width="1.5"/>
<path d="M68.2368 68.1332L68.0977 68.1777L67.969 68.2466C55.3816 74.9727 41.1206 72.2873 29.8772 64.4478C18.6122 56.5928 10.6816 43.7638 10.6816 30.7065C10.6816 24.4329 13.3911 19.929 18.0616 16.5924C22.8186 13.1941 29.6317 11.0029 37.7262 9.63045C51.3843 7.31457 68.1181 7.40813 83.5176 7.49427C86.3773 7.51026 89.1909 7.52599 91.9305 7.52599C109.264 7.52599 118.555 10.4395 123.653 16.194C128.795 21.9992 130.091 31.1303 130.091 44.8755C130.091 51.4181 128.323 55.1965 125.49 57.5718C122.555 60.0314 118.198 61.239 112.447 61.9562C109.143 62.3682 105.582 62.6034 101.719 62.858C98.7939 63.0512 95.6954 63.2553 92.4049 63.5568C84.8896 64.2452 76.6807 65.4258 68.2368 68.1332Z" stroke="black" stroke-width="1.5"/>
<path d="M54.3578 56.7454L54.2171 56.7916L54.087 56.8627C46.7453 60.875 38.386 59.3032 31.7226 54.5514C25.0392 49.7854 20.3633 42.0157 20.3633 34.1591C20.3633 30.4784 21.9009 27.8681 24.5771 25.9127C27.3389 23.8948 31.3471 22.5608 36.2076 21.7179C44.411 20.2952 54.4675 20.3523 63.7914 20.4052C65.5264 20.4151 67.2359 20.4248 68.9031 20.4248C79.3646 20.4248 84.7254 22.2333 87.6151 25.57C90.5603 28.9708 91.3633 34.3995 91.3633 42.9306C91.3633 46.8761 90.3247 49.0164 88.7928 50.3298C87.1675 51.7229 84.6954 52.453 81.2377 52.8943C79.2462 53.1483 77.1313 53.2904 74.8183 53.4462C73.0492 53.565 71.1641 53.692 69.129 53.8826C64.5559 54.311 59.5337 55.048 54.3578 56.7454Z" stroke="black" stroke-width="1.5"/>
</svg>
