<svg width="32" height="26" viewBox="0 0 32 26" fill="none" xmlns="http://www.w3.org/2000/svg">
<path d="M30.0636 19.8062C28.9184 18.8832 26.1448 17.5361 24.7991 16.9933C23.0466 16.2871 22.9024 16.2294 21.525 17.0481C20.6062 17.5944 19.9953 18.0824 18.9201 17.899C17.8448 17.7155 15.5082 16.6811 13.4623 15.0497C11.4163 13.4182 10.0482 11.4948 9.81818 10.6376C9.58812 9.78029 10.2083 9.29743 10.8848 8.56073C11.8382 7.52231 11.7661 7.34924 10.9511 5.94738C10.3158 4.85704 8.58281 2.65906 7.42461 1.74756C6.18564 0.768566 6.18564 0.941635 5.3873 1.20701C4.73736 1.42576 4.11383 1.69167 3.52451 2.0014C2.37064 2.61464 1.73024 3.12404 1.28239 3.88959C0.834543 4.65513 0.633337 6.44986 2.94613 9.81087C5.25893 13.1719 6.88157 14.8905 10.2401 17.5696C13.5986 20.2487 16.1811 21.6892 19.9564 23.383C24.6267 25.4754 26.4181 25.0675 27.378 24.7098C28.3379 24.3522 28.9775 23.8445 29.7456 22.9215C30.1338 22.4508 30.4669 21.9526 30.7408 21.4331C31.0733 20.7967 31.2896 20.7967 30.0636 19.8062Z" stroke="white" stroke-width="2" stroke-miterlimit="10"/>
</svg>
