<svg width="476" height="66" viewBox="0 0 476 66" fill="none" xmlns="http://www.w3.org/2000/svg">
<path d="M12 40.5523C12 39.0262 19.016 37.1665 21.8923 36.1098C34.9086 31.3277 49.4797 26.7223 64.5051 22.4837C77.171 18.9107 90.0961 15.2985 106.611 13.3374C112.063 12.69 118.053 12.0808 123.985 11.9935C127.081 11.9479 126.141 12.781 126.141 13.4868C126.141 18.8033 128.733 24.0342 129.439 29.3341C129.516 29.9108 130.382 38.4775 132.99 38.1257C136.608 37.6376 140.396 35.934 142.882 35.1392C150.82 32.6015 158.937 30.176 168.501 28.1581C195.178 22.5291 226.206 18.3609 256.326 14.6067C262.382 13.8519 268.979 12.963 275.603 12.7401C278.966 12.627 277.949 13.8328 277.949 14.4947C277.949 18.8923 279.827 23.2327 280.169 27.6168C280.38 30.3139 279.724 33.0439 280.296 35.7365C280.466 36.5369 281.413 36.4714 283.149 35.9605C288.154 34.4872 293.135 33.0413 298.368 31.63C318.607 26.1721 343.109 22.2291 367.741 18.7505C378.592 17.2181 389.75 15.6665 401.222 14.5694C403.396 14.3615 415.626 12.954 418.026 13.5428C419.855 13.9914 416.558 14.8776 415.997 15.5587C413.467 18.631 412.786 21.8014 412.193 24.9476C411.469 28.7813 412.438 32.0194 416.187 35.7178C419.193 38.6826 421.637 41.0453 427.094 43.7441C436.73 48.5093 450.528 50.4404 464 53.9917" stroke="#FF0000" stroke-opacity="0.47" stroke-width="24" stroke-linecap="round"/>
</svg>
