<svg xmlns="http://www.w3.org/2000/svg" width="140" height="4"><path fill="none"   stroke="#C8D6AF" paint-order="fill stroke markers" d="m20 412.007 1 .486 1 .484 1 .482 1 .48 1 .477 1 .474 1 .473 1 .469 1 .467 1 .464 1 .46 1 .459 1 .454 1 .452 1 .448 1 .445 1 .442 1 .438 1 .434 1 .43 1 .427 1 .423 1 .42 1 .414 1 .41 1 .407 1 .402 1 .398 1 .393 1 .389 1 .384 1 .38 1 .374 1 .37 1 .365 1 .36 1 .354 1 .35 1 .344 1 .34 1 .333 1 .329 1 .323 1 .317 1 .312 1 .306 1 .3 1 .295 1 .29 1 .282 1 .277 1 .27 1 .266 1 .259 1 .252 1 .247 1 .24 1 .233 1 .228 1 .22 1 .215 1 .209 1 .201 1 .195 1 .189 1 .181 1 .175 1 .169 1 .161 1 .155 1 .148 1 .141 1 .134 1 .128 1 .12 1 .114 1 .106 1 .1 1 .092 1 .086 1 .078 1 .071 1 .065 1 .057 1 .05 1 .043 1 .036 1 .029 1 .021 1 .015 1 .007h1l1-.007 1-.014 1-.021 1-.028 1-.036 1-.043 1-.05 1-.056 1-.064 1-.071 1-.078 1-.085 1-.092 1-.1 1-.106 1-.113 1-.12 1-.127 1-.134 1-.14 1-.148 1-.154 1-.162 1-.168 1-.174 1-.182 1-.188 1-.194 1-.202 1-.207 1-.215 1-.22 1-.227 1-.234 1-.24 1-.246 1-.252 1-.258 1-.265 1-.27 1-.277 1-.283 1-.288 1-.295 1-.3 1-.306 1-.311 1-.317 1-.323 1-.328 1-.334 1-.338 1-.345 1-.349 1-.354 1-.36 1-.365 1-.37 1-.374 1-.379 1-.384 1-.388 1-.393 1-.398 1-.401 1-.407 1-.41 1-.415 1-.418 1-.423 1-.427 1-.43 1-.434 1-.438 1-.441 1-.445 1-.448 1-.452 1-.454 1-.458 1-.46 1-.465 1-.466 1-.47 1-.471 1-.475 1-.477 1-.48 1-.481 1-.484 1-.486 1-.488 1-.49 1-.491 1-.494 1-.495 1-.496 1-.498 1-.499 1-.5 1-.502 1-.502 1-.503 1-.505 1-.505 1-.505 1-.506 1-.506 1-.507 1-.507 1-.507 1-.507 1-.507 1-.507 1-.506 1-.506 1-.506 1-.505 1-.504 1-.503 1-.503 1-.502 1-.5 1-.5 1-.497 1-.497 1-.495 1-.493 1-.492 1-.49 1-.488 1-.487 1-.484 1-.482 1-.48 1-.476 1-.475 1-.473 1-.47 1-.466 1-.464 1-.461 1-.458 1-.455 1-.452 1-.449 1-.445 1-.442 1-.438 1-.434 1-.43 1-.428 1-.423 1-.42 1-.414 1-.411 1-.407 1-.402 1-.398 1-.393 1-.39 1-.384 1-.38 1-.374 1-.37 1-.365 1-.36 1-.356 1-.35 1-.344 1-.34 1-.334 1-.329 1-.323 1-.318 1-.312 1-.306 1-.3 1-.296 1-.289 1-.283 1-.277 1-.272 1-.265 1-.259 1-.253 1-.247 1-.24 1-.234 1-.228 1-.221 1-.215 1-.209 1-.202 1-.195 1-.189 1-.182 1-.175 1-.169 1-.162 1-.155 1-.148 1-.142 1-.134 1-.128 1-.12 1-.115 1-.107 1-.1 1-.092 1-.086 1-.08 1-.07 1-.065 1-.058 1-.05 1-.044 1-.036 1-.03 1-.021 1-.015 1-.008h1l1 .006 1 .014 1 .02 1 .029 1 .035 1 .042 1 .05 1 .056 1 .063 1 .071 1 .078 1 .084 1 .092 1 .099 1 .106 1 .112 1 .12 1 .127 1 .133 1 .14 1 .148 1 .154 1 .16 1 .169 1 .174 1 .18 1 .189 1 .194 1 .2 1 .208 1 .214 1 .22 1 .227 1 .233 1 .24 1 .245 1 .252 1 .258 1 .265 1 .27 1 .276 1 .283 1 .288 1 .294 1 .3 1 .305 1 .311 1 .317 1 .323 1 .327 1 .334 1 .338 1 .344 1 .35 1 .354 1 .359 1 .364 1 .37 1 .374 1 .378 1 .384 1 .388 1 .393 1 .397 1 .402 1 .406 1 .41 1 .415 1 .418 1 .422 1 .427 1 .43 1 .434 1 .437 1 .442 1 .444 1 .448 1 .451 1 .455 1 .458 1 .46 1 .464 1 .466 1 .47 1 .471 1 .475 1 .477 1 .479 1 .481 1 .484 1 .486 1 .488 1 .49 1 .491 1 .493 1 .495 1 .497 1 .497 1 .5 1 .5 1 .501 1 .502 1 .504 1 .504 1 .505 1 .505 1 .506 1 .507 1 .506 1 .507 1 .507 1 .507 1 .507 1 .507 1 .506 1 .506 1 .506 1 .505 1 .504 1 .504 1 .502 1 .502 1 .5 1 .5 1 .498 1 .497 1 .495 1 .493 1 .492 1 .49 1 .489 1 .486 1 .484 1 .482 1 .48 1 .477 1 .475 1 .473 1 .47 1 .466 1 .465 1 .46 1 .46 1 .454 1 .452 1 .449 1 .445 1 .442 1 .439 1 .434 1 .431 1 .427 1 .424 1 .419 1 .415 1 .411 1 .407 1 .403 1 .398 1 .394 1 .389 1 .385 1 .38 1 .375 1 .37 1 .365 1 .36 1 .356 1 .35 1 .345 1 .34 1 .334 1 .33 1 .323 1 .318 1 .312 1 .307 1 .301 1 .295 1 .29 1 .283 1 .278 1 .271 1 .266 1 .26 1 .253 1 .247 1 .24 1 .235 1 .228 1 .222 1 .215 1 .209 1 .202 1 .196 1 .189 1 .182 1 .176 1 .17 1 .161 1 .156 1 .149 1 .141 1 .135 1 .129 1 .12 1 .115 1 .107 1 .1 1 .094 1 .086 1 .08 1 .071 1 .065 1 .058 1 .051 1 .044 1 .036 1 .03 1 .022 1 .015 1 .009h1l1-.006 1-.013 1-.02 1-.028 1-.035 1-.042 1-.049 1-.056 1-.063 1-.07 1-.077 1-.085 1-.091 1-.099 1-.105 1-.112 1-.12 1-.126 1-.133 1-.14 1-.147 1-.154 1-.16 1-.167 1-.174 1-.181 1-.187 1-.194 1-.2 1-.208 1-.213 1-.22 1-.227 1-.233 1-.239 1-.245 1-.252 1-.258 1-.264 1-.27 1-.275 1-.282 1-.288 1-.294 1-.3 1-.305 1-.31 1-.317 1-.322 1-.328 1-.333 1-.338 1-.344 1-.349 1-.354 1-.359 1-.364 1-.369 1-.374 1-.378 1-.384 1-.388 1-.392 1-.397 1-.402 1-.405 1-.41 1-.414 1-.419 1-.422 1-.426 1-.43 1-.434 1-.437 1-.441 1-.445 1-.447 1-.451 1-.455 1-.457 1-.46 1-.464 1-.466 1-.47 1-.471 1-.475 1-.476 1-.48 1-.48 1-.484 1-.486 1-.488 1-.49 1-.491 1-.493 1-.495 1-.496 1-.498 1-.499 1-.5 1-.501 1-.503 1-.503 1-.504 1-.505 1-.505 1-.506 1-.507 1-.506 1-.507 1-.507 1-.507 1-.507 1-.507 1-.506 1-.507 1-.505 1-.505 1-.505 1-.503 1-.503 1-.501 1-.501 1-.5 1-.497 1-.497 1-.495 1-.494 1-.492 1-.49 1-.489 1-.486 1-.484 1-.483 1-.48 1-.477 1-.475 1-.473 1-.47 1-.467 1-.464 1-.461 1-.459 1-.455 1-.452 1-.45 1-.445 1-.442 1-.438 1-.435 1-.431 1-.428 1-.423 1-.42 1-.415 1-.412 1-.407 1-.403 1-.398 1-.394 1-.39 1-.384 1-.38 1-.376 1-.37 1-.366 1-.36 1-.356 1-.35 1-.346 1-.34 1-.335 1-.329 1-.324 1-.318 1-.313 1-.307 1-.301 1-.296 1-.29 1-.283 1-.278 1-.272 1-.266 1-.26 1-.253 1-.248 1-.24 1-.236 1-.228 1-.222 1-.216 1-.209 1-.203 1-.196 1-.189 1-.183 1-.176 1-.17 1-.162 1-.156 1-.149 1-.142 1-.135 1-.129 1-.121 1-.115 1-.108 1-.1 1-.094 1-.086 1-.08 1-.073 1-.065 1-.058 1-.052 1-.044 1-.037 1-.03 1-.022 1-.016 1-.008 1-.002 1 .006 1 .013 1 .02 1 .027 1 .035 1 .041 1 .049 1 .056 1 .062 1 .07 1 .077 1 .084 1 .091 1 .098 1 .105 1 .112 1 .12 1 .125 1 .133 1 .14 1 .146 1 .153 1 .16 1 .167 1 .174 1 .18 1 .187 1 .194 1 .2 1 .207 1 .213 1 .22 1 .226 1 .232 1 .239 1 .245 1 .251 1 .258 1 .263 1 .27 1 .276 1 .281 1 .288 1 .293 1 .3 1 .304 1 .311 1 .316 1 .322 1 .327 1 .333 1 .338 1 .343 1 .349 1 .354 1 .358 1 .364 1 .369 1 .374 1 .378 1 .383 1 .388 1 .392 1 .397 1 .401 1 .406 1 .41 1 .413 1 .418 1 .422 1 .426 1 .43 1 .434 1 .437 1 .44 1 .445 1 .447 1 .451 1 .455 1 .457 1 .46 1 .464 1 .466 1 .469 1 .471 1 .474 1 .477 1 .479 1 .481 1 .484 1 .485 1 .488 1 .49 1 .49 1 .494 1 .495 1 .496 1 .497 1 .5 1 .5 1 .5 1 .503 1 .503 1 .504 1 .505 1 .506 1 .505 1 .507 1 .506 1 .507 1 .507 1 .507 1 .507 1 .507 1 .507 1 .506 1 .505 1 .505 1 .505 1 .503 1 .503 1 .502 1 .5 1 .5 1 .498 1 .497 1 .495 1 .494 1 .492 1 .49 1 .489 1 .486 1 .485 1 .482 1 .48 1 .478 1 .475 1 .473 1 .47 1 .467 1 .464 1 .462 1 .459 1 .455 1 .452 1 .45 1 .445 1 .442 1 .44 1 .434 1 .432 1 .427 1 .424 1 .42 1 .415 1 .412 1 .407 1 .403 1 .399 1 .394 1 .39 1 .385 1 .38 1 .376 1 .37 1 .367 1 .36 1 .356 1 .351 1 .346 1 .34 1 .335 1 .33 1 .324 1 .318 1 .313 1 .308 1 .301 1 .296 1 .29 1 .284 1 .279 1 .272 1 .266 1 .26 1 .254 1 .248 1 .241 1 .235 1 .23 1 .222 1 .215 1 .21 1 .203 1 .196 1 .19 1 .183 1 .177 1 .17 1 .162 1 .157 1 .15 1 .142 1 .135 1 .13 1 .121 1 .115 1 .108 1 .101 1 .094 1 .087 1 .08 1 .073 1 .066 1 .058 1 .052 1 .044 1 .038 1 .03 1 .023 1 .016 1 .01h1l1-.005 1-.012 1-.02 1-.027 1-.034 1-.04 1-.05 1-.054 1-.063 1-.07 1-.076 1-.083 1-.091 1-.098 1-.104 1-.112 1-.119 1-.125 1-.133 1-.139 1-.146 1-.153 1-.16 1-.166 1-.174 1-.18 1-.186 1-.193 1-.2 1-.207 1-.213 1-.219 1-.226 1-.232 1-.238 1-.245 1-.25 1-.258 1-.263 1-.27 1-.275 1-.281 1-.287 1-.294 1-.298 1-.305 1-.31 1-.316 1-.322 1-.327 1-.332 1-.338 1-.343 1-.348 1-.354 1-.358 1-.364 1-.368 1-.374 1-.378 1-.383 1-.387 1-.392 1-.397 1-.4 1-.406 1-.41 1-.413 1-.418 1-.422 1-.426 1-.43 1-.433 1-.437 1-.44 1-.444 1-.448 1-.45 1-.454 1-.458 1-.46 1-.463 1-.466 1-.469 1-.471 1-.474 1-.477 1-.478 1-.482 1-.483 1-.486 1-.487 1-.49 1-.49 1-.494 1-.494 1-.496 1-.498 1-.499 1-.5 1-.501 1-.502 1-.504 1-.504 1-.504 1-.506 1-.506 1-.506 1-.507 1-.506 1-.507 1-.507 1-.507 1-.507 1-.507 1-.506 1-.506 1-.505 1-.504 1-.504 1-.502 1-.502 1-.5 1-.5 1-.499 1-.497 1-.495 1-.494 1-.492 1-.49 1-.489 1-.487 1-.484 1-.482 1-.48 1-.478 1-.476 1-.473 1-.47 1-.467 1-.465 1-.462 1-.458 1-.456 1-.453 1-.449 1-.446 1-.442 1-.439 1-.435 1-.432 1-.428 1-.423 1-.42 1-.416 1-.412 1-.408 1-.403 1-.399 1-.394 1-.39 1-.386 1-.38 1-.376 1-.371 1-.366 1-.362 1-.356 1-.35 1-.347 1-.34 1-.335 1-.33 1-.325 1-.319 1-.313 1-.308 1-.301 1-.297 1-.29 1-.285 1-.278 1-.273 1-.266 1-.26 1-.255 1-.248 1-.242 1-.235 1-.23 1-.222 1-.216 1-.21 1-.203 1-.197 1-.19 1-.184 1-.177 1-.17 1-.163 1-.157 1-.15 1-.142 1-.136 1-.13 1-.122 1-.115 1-.109 1-.1 1-.095 1-.088 1-.08 1-.073 1-.066 1-.06 1-.051 1-.045 1-.038 1-.03 1-.024 1-.017 1-.009 1-.002 1 .005 1 .012 1 .02 1 .026 1 .034 1 .04 1 .048 1 .055 1 .062 1 .07 1 .076 1 .083 1 .09 1 .097 1 .105 1 .111 1 .118 1 .125 1 .132 1 .14 1 .145 1 .153 1 .16 1 .165 1 .173 1 .18 1 .186 1 .193 1 .2 1 .206 1 .212 1 .219 1 .225 1 .232 1 .238 1 .245 1 .25 1 .257 1 .263 1 .27 1 .274 1 .281 1 .287 1 .293 1 .298 1 .305 1 .31 1 .315 1 .322 1 .326 1 .332 1 .338 1 .343 1 .348 1 .353 1 .358 1 .363 1 .369 1 .373 1 .378 1 .382 1 .387 1 .392 1 .397 1 .4 1 .405 1 .41 1 .413 1 .418 1 .421 1 .426 1 .43 1 .432 1 .437 1 .44 1 .445 1 .447 1 .45 1 .454 1 .457 1 .46 1 .463 1 .466 1 .469 1 .47 1 .475 1 .476 1 .479 1 .481 1 .483 1 .486 1 .487 1 .49 1 .49 1 .494 1 .494 1 .496 1 .498 1 .498 1 .5 1 .501 1 .503 1 .503 1 .504 1 .504 1 .506 1 .506 1 .506 1 .507 1 .507 1 .507 1 .507 1 .507 1 .506 1 .507 1 .506 1 .506 1 .505 1 .504 1 .504 1 .503 1 .502 1 .5 1 .5 1 .498 1 .497 1 .496 1 .494 1 .492 1 .49 1 .49 1 .486 1 .484 1 .483 1 .48 1 .478 1 .476 1 .472 1 .47 1 .468 1 .465 1 .462 1 .46 1 .455 1 .453 1 .449 1 .446 1 .443 1 .439 1 .435 1 .432 1 .428 1 .424 1 .42 1 .416 1 .412 1 .408 1 .404 1 .399 1 .394 1 .39 1 .386 1 .381 1 .376 1 .372 1 .366 1 .362 1 .356 1 .351 1 .346 1 .341 1 .336 1 .33 1 .325 1 .319 1 .313 1 .308 1 .303 1 .296 1 .29 1 .286 1 .278 1 .273 1 .267 1 .26 1 .255 1 .249 1 .242 1 .236 1 .23 1 .222 1 .217 1 .21 1 .204 1 .197 1 .19 1 .184 1 .177 1 .17 1 .164 1 .157 1 .15 1 .144 1 .136 1 .13 1 .123 1 .115 1 .109 1 .102 1 .094 1 .088 1 .08 1 .074 1 .067 1 .06 1 .052 1 .045 1 .038 1 .031 1 .024 1 .017 1 .01 1 .002 1-.005 1-.012 1-.019 1-.026 1-.033 1-.04 1-.048 1-.054 1-.062 1-.069 1-.075 1-.083 1-.09 1-.097 1-.104 1-.11 1-.119 1-.125 1-.131 1-.139 1-.145 1-.152 1-.16 1-.165 1-.173 1-.18 1-.185 1-.193 1-.199 1-.205 1-.213 1-.218 1-.225 1-.232 1-.238 1-.244 1-.25 1-.256 1-.263 1-.269 1-.274 1-.281 1-.287 1-.292 1-.298 1-.305 1-.31 1-.315 1-.32 1-.327 1-.332 1-.337 1-.342 1-.348 1-.353 1-.358 1-.363 1-.368 1-.373 1-.377 1-.383 1-.387 1-.391 1-.396 1-.401 1-.405 1-.409 1-.413 1-.418 1-.421 1-.425 1-.43 1-.432 1-.437 1-.44 1-.444 1-.447 1-.45 1-.454 1-.457 1-.46 1-.463 1-.465 1-.469 1-.47 1-.475 1-.476 1-.478 1-.481" stroke-linecap="round" stroke-linejoin="round" stroke-miterlimit="10" stroke-width="19"/></svg>