<svg width="57" height="29" viewBox="0 0 57 29" fill="none" xmlns="http://www.w3.org/2000/svg">
<path d="M35 16.5C35 17.6735 34.9564 18.4334 34.8704 18.8877C34.8546 18.9709 34.8386 19.037 34.8236 19.0888C34.7216 19.0054 34.5949 18.8802 34.4383 18.7078C34.2122 18.4588 33.9577 18.15 33.6598 17.7885C33.5089 17.6055 33.347 17.4089 33.172 17.1999C31.1361 14.7678 27.6297 11 22 11C19.2394 11 16.4665 11.6011 13.8817 12.3395C12.5882 12.7091 11.3349 13.1152 10.1517 13.5001L10.0365 13.5376C8.89285 13.9096 7.81923 14.2589 6.82547 14.5397C5.79743 14.8301 4.87409 15.0416 4.06752 15.1289C3.25756 15.2165 2.60273 15.1744 2.09256 14.9905C1.6004 14.8132 1.21868 14.496 0.948788 13.968C0.670333 13.4234 0.5 12.6312 0.5 11.5C0.5 9.20601 0.880804 7.39488 1.58979 5.96422C2.29569 4.53978 3.33995 3.46578 4.71419 2.66059C7.49197 1.03303 11.6203 0.5 17 0.5C27.5442 0.5 35 7.43548 35 16.5Z" stroke="black"/>
<mask id="path-2-inside-1_104_741" fill="white">
<path d="M6.11833 9.54457C5.87762 9.67991 5.7922 9.98475 5.92754 10.2254C6.06288 10.4661 6.36772 10.5515 6.60842 10.4162L6.11833 9.54457ZM34.9615 18.3056L33.6624 15.2203L32.7408 15.6083L34.0399 18.6936L34.9615 18.3056ZM10.2739 7.20814L6.11833 9.54457L6.60842 10.4162L10.7639 8.07981L10.2739 7.20814ZM24.1475 6.1134C19.5864 4.42413 14.5135 4.82442 10.2739 7.20814L10.7639 8.07981C14.7477 5.83997 19.5144 5.46384 23.8002 7.05115L24.1475 6.1134ZM33.6624 15.2203C31.8856 11.0002 28.4413 7.70372 24.1475 6.1134L23.8002 7.05115C27.8348 8.54548 31.0712 11.643 32.7408 15.6083L33.6624 15.2203Z"/>
</mask>
<path d="M6.11833 9.54457C5.87762 9.67991 5.7922 9.98475 5.92754 10.2254C6.06288 10.4661 6.36772 10.5515 6.60842 10.4162L6.11833 9.54457ZM34.9615 18.3056L33.6624 15.2203L32.7408 15.6083L34.0399 18.6936L34.9615 18.3056ZM10.2739 7.20814L6.11833 9.54457L6.60842 10.4162L10.7639 8.07981L10.2739 7.20814ZM24.1475 6.1134C19.5864 4.42413 14.5135 4.82442 10.2739 7.20814L10.7639 8.07981C14.7477 5.83997 19.5144 5.46384 23.8002 7.05115L24.1475 6.1134ZM33.6624 15.2203C31.8856 11.0002 28.4413 7.70372 24.1475 6.1134L23.8002 7.05115C27.8348 8.54548 31.0712 11.643 32.7408 15.6083L33.6624 15.2203Z" fill="#FFF6F5"/>
<path d="M7.04425 10.1712L6.55416 9.29952L5.68249 9.78961L6.17258 10.6613L7.04425 10.1712ZM10.0831 7.88898L10.3281 8.32482L11.1998 7.8348L10.9548 7.39896L10.0831 7.88898ZM33.4684 14.7595L32.5468 15.1475L32.9348 16.0692L33.8564 15.6812L33.4684 14.7595ZM11.1998 7.8348L10.7098 6.96313L9.83807 7.45315L10.3281 8.32482L11.1998 7.8348ZM24.2691 7.2248L24.6164 6.28705L23.6787 5.93975L23.3314 6.8775L24.2691 7.2248ZM6.11833 9.54457L5.62824 8.67289L5.62823 8.6729L6.11833 9.54457ZM5.92754 10.2254L6.7992 9.73532L6.79919 9.73531L5.92754 10.2254ZM6.60842 10.4162L7.09842 11.288L7.09851 11.2879L6.60842 10.4162ZM10.7639 8.07981L10.2738 7.20813L10.2738 7.20814L10.7639 8.07981ZM34.9615 18.3056L35.3496 19.2273L36.2712 18.8392L35.8832 17.9176L34.9615 18.3056ZM33.6624 15.2203L32.7408 15.6084L32.7408 15.6084L33.6624 15.2203ZM32.7408 15.6083L31.8192 15.9964L31.8192 15.9964L32.7408 15.6083ZM34.0399 18.6936L33.1183 19.0817L33.5063 20.0033L34.4279 19.6153L34.0399 18.6936ZM10.2739 7.20814L10.764 8.07981L10.764 8.07981L10.2739 7.20814ZM24.1475 6.1134L24.4948 5.17565L24.4948 5.17565L24.1475 6.1134ZM23.8002 7.05115L24.1475 6.1134L24.1475 6.1134L23.8002 7.05115ZM5.62823 8.6729C4.90615 9.07889 4.64982 9.99342 5.05589 10.7156L6.79919 9.73531C6.93457 9.97608 6.84909 10.2809 6.60843 10.4162L5.62823 8.6729ZM5.05588 10.7156C5.46192 11.4377 6.3764 11.6938 7.09842 11.288L6.11841 9.54452C6.35904 9.40926 6.66384 9.49459 6.7992 9.73532L5.05588 10.7156ZM35.8832 17.9176L34.5841 14.8323L32.7408 15.6084L34.0399 18.6937L35.8832 17.9176ZM31.8192 15.9964L33.1183 19.0817L34.9616 18.3056L33.6625 15.2203L31.8192 15.9964ZM34.4279 19.6153L35.3496 19.2273L34.5735 17.384L33.6519 17.772L34.4279 19.6153ZM9.78384 6.33646L5.62824 8.67289L6.60841 10.4162L10.764 8.07981L9.78384 6.33646ZM7.09851 11.2879L11.254 8.95148L10.2738 7.20814L6.11832 9.54457L7.09851 11.2879ZM24.4948 5.17565C19.6584 3.38442 14.2793 3.80886 9.78383 6.33647L10.764 8.07981C14.7477 5.83997 19.5144 5.46384 23.8002 7.05115L24.4948 5.17565ZM11.254 8.95148C14.9819 6.85552 19.4424 6.50355 23.4529 7.9889L24.1475 6.1134C19.5864 4.42413 14.5135 4.82442 10.2738 7.20813L11.254 8.95148ZM34.5841 14.8323C32.7 10.3575 29.0478 6.86196 24.4948 5.17565L23.8002 7.05114C27.8348 8.54548 31.0712 11.643 32.7408 15.6084L34.5841 14.8323ZM23.4529 7.98889C27.2283 9.38723 30.2568 12.2858 31.8192 15.9964L33.6625 15.2203C31.8856 11.0003 28.4413 7.70372 24.1475 6.1134L23.4529 7.98889Z" fill="black" mask="url(#path-2-inside-1_104_741)"/>
<path d="M11.8008 7.15039L11.1108 4.86467C11.0399 4.63001 10.8854 4.42954 10.6765 4.30134L8.80078 3.15039" stroke="black" stroke-width="0.5" stroke-linecap="round"/>
<path d="M15 5.57031L14.31 3.28459C14.2391 3.04993 14.0846 2.84946 13.8757 2.72126L12 1.57031" stroke="black" stroke-width="0.5" stroke-linecap="round"/>
<path d="M20 5.57031L19.31 3.28459C19.2391 3.04993 19.0846 2.84946 18.8757 2.72126L17 1.57031" stroke="black" stroke-width="0.5" stroke-linecap="round"/>
<path d="M25 6.57031L24.31 4.28459C24.2391 4.04993 24.0846 3.84946 23.8757 3.72126L22 2.57031" stroke="black" stroke-width="0.5" stroke-linecap="round"/>
<path d="M28.5 9.5V7.41421C28.5 7.149 28.3946 6.89464 28.2071 6.70711L26.5 5" stroke="black" stroke-width="0.5" stroke-linecap="round"/>
<path d="M15 10.5703L14.31 8.28459C14.2391 8.04993 14.0846 7.84946 13.8757 7.72126L12 6.57031" stroke="black" stroke-width="0.5" stroke-linecap="round"/>
<path d="M18 9.57031L17.31 7.28459C17.2391 7.04993 17.0846 6.84946 16.8757 6.72126L15 5.57031" stroke="black" stroke-width="0.5" stroke-linecap="round"/>
<path d="M22.2 9.5V8.29908C22.2 8.05483 22.1106 7.81903 21.9487 7.63616L20.5 6" stroke="black" stroke-width="0.5" stroke-linecap="round"/>
<path d="M25 10L25.3946 8.81625C25.463 8.61097 25.463 8.38904 25.3946 8.18376L25 7" stroke="black" stroke-width="0.5" stroke-linecap="round"/>
<path d="M28 11.5L28.3944 10.7111C28.4639 10.5723 28.5 10.4192 28.5 10.2639V9.5" stroke="black" stroke-width="0.5" stroke-linecap="round"/>
<path d="M34.5657 17.8441C34.5658 17.8442 34.5642 17.8442 34.5607 17.8438M33.5634 16.7446C33.7831 17.1355 33.9434 17.4391 34.054 17.6717C33.932 17.6216 33.7998 17.5649 33.6531 17.502C33.4909 17.4324 33.311 17.3551 33.1075 17.2709C31.3062 16.5252 28.2437 15.4846 25.1087 17.2465C23.5917 18.0991 22.2551 19.2764 21.0707 20.4606C20.4777 21.0535 19.9179 21.6533 19.392 22.2179L19.342 22.2716C18.8325 22.8187 18.3574 23.3289 17.9055 23.7781C17.4381 24.2427 17.0093 24.6281 16.6104 24.9115C16.2088 25.1969 15.8673 25.3571 15.5741 25.4081C15.2995 25.4558 15.0473 25.4122 14.7862 25.2417C14.5093 25.0609 14.1999 24.7217 13.8706 24.1358C13.1961 22.9356 12.8743 21.8875 12.8328 20.9504C12.7915 20.02 13.025 19.1681 13.5119 18.3503C14.5032 16.6854 16.541 15.165 19.4543 13.5278C25.0769 10.3679 30.9096 12.0223 33.5634 16.7446Z" stroke="black"/>
<mask id="path-15-inside-2_104_741" fill="white">
<path d="M16.0058 21.3741C15.8596 21.61 15.9304 21.9185 16.164 22.0633C16.3975 22.208 16.7053 22.134 16.8515 21.8981L16.0058 21.3741ZM34.5222 17.1979L32.9349 15.9827L32.3256 16.7819L33.9129 17.9971L34.5222 17.1979ZM17.5433 18.8925L16.0058 21.3741L16.8515 21.8981L18.389 19.4166L17.5433 18.8925ZM24.8711 13.9745C21.8431 14.4739 19.1689 16.2687 17.5433 18.8925L18.389 19.4166C19.861 17.0408 22.2824 15.4157 25.0241 14.9635L24.8711 13.9745ZM32.9349 15.9827C30.6444 14.2291 27.7293 13.5031 24.8711 13.9745L25.0241 14.9635C27.6121 14.5367 30.2516 15.194 32.3256 16.7819L32.9349 15.9827Z"/>
</mask>
<path d="M16.0058 21.3741C15.8596 21.61 15.9304 21.9185 16.164 22.0633C16.3975 22.208 16.7053 22.134 16.8515 21.8981L16.0058 21.3741ZM34.5222 17.1979L32.9349 15.9827L32.3256 16.7819L33.9129 17.9971L34.5222 17.1979ZM17.5433 18.8925L16.0058 21.3741L16.8515 21.8981L18.389 19.4166L17.5433 18.8925ZM24.8711 13.9745C21.8431 14.4739 19.1689 16.2687 17.5433 18.8925L18.389 19.4166C19.861 17.0408 22.2824 15.4157 25.0241 14.9635L24.8711 13.9745ZM32.9349 15.9827C30.6444 14.2291 27.7293 13.5031 24.8711 13.9745L25.0241 14.9635C27.6121 14.5367 30.2516 15.194 32.3256 16.7819L32.9349 15.9827Z" fill="#FFF6F5"/>
<path d="M18.389 19.4166L18.1256 19.8416L18.6524 18.9916L18.389 19.4166ZM17.1148 21.4731L16.2691 20.9491L15.7424 21.7991L16.5881 22.3231L17.1148 21.4731ZM17.7027 19.5795L18.1255 19.8416L18.6524 18.9916L18.2296 18.7295L17.7027 19.5795ZM32.5373 15.6796L31.928 16.4788L32.7232 17.085L33.3325 16.2858L32.5373 15.6796ZM18.6524 18.9916L17.8067 18.4675L17.2799 19.3175L18.1256 19.8416L18.6524 18.9916ZM25.5182 14.8871L25.3652 13.8981L24.377 14.0509L24.53 15.0399L25.5182 14.8871ZM16.0058 21.3741L16.8558 21.9009L16.8558 21.9008L16.0058 21.3741ZM16.164 22.0633L15.6371 22.9133L15.6372 22.9133L16.164 22.0633ZM16.8515 21.8981L17.7015 22.4249L17.7015 22.4248L16.8515 21.8981ZM18.389 19.4166L19.239 19.9433L19.239 19.9433L18.389 19.4166ZM34.5222 17.1979L35.3174 17.8042L35.9225 17.0105L35.1301 16.4039L34.5222 17.1979ZM32.9349 15.9827L32.327 16.7767L32.327 16.7767L32.9349 15.9827ZM32.3256 16.7819L31.7177 17.5759L31.7177 17.5759L32.3256 16.7819ZM33.9129 17.9971L33.305 18.7911L34.1006 19.4002L34.7081 18.6034L33.9129 17.9971ZM17.5433 18.8925L18.3933 19.4192L18.3933 19.4192L17.5433 18.8925ZM24.8711 13.9745L25.0338 14.9612L25.0338 14.9612L24.8711 13.9745ZM25.0241 14.9635L24.8614 13.9768L24.8613 13.9768L25.0241 14.9635ZM15.1558 20.8473C14.7236 21.5447 14.9263 22.4726 15.6371 22.9133L16.6908 21.2133C16.9345 21.3644 16.9956 21.6753 16.8558 21.9009L15.1558 20.8473ZM15.6372 22.9133C16.3486 23.3541 17.2696 23.1218 17.7015 22.4249L16.0015 21.3713C16.141 21.1462 16.4464 21.0619 16.6907 21.2133L15.6372 22.9133ZM35.1301 16.4039L33.5428 15.1887L32.327 16.7767L33.9143 17.9919L35.1301 16.4039ZM31.7177 17.5759L33.305 18.7911L34.5208 17.2031L32.9335 15.9879L31.7177 17.5759ZM34.7081 18.6034L35.3174 17.8042L33.7269 16.5916L33.1176 17.3908L34.7081 18.6034ZM16.6932 18.3658L15.1557 20.8474L16.8558 21.9008L18.3933 19.4192L16.6932 18.3658ZM17.7015 22.4248L19.239 19.9433L17.5389 18.8899L16.0014 21.3714L17.7015 22.4248ZM24.7083 12.9878C21.3937 13.5345 18.4698 15.4983 16.6932 18.3658L18.3933 19.4192C19.868 17.0391 22.2925 15.4133 25.0338 14.9612L24.7083 12.9878ZM19.239 19.9433C20.5601 17.8112 22.7318 16.3551 25.1868 15.9502L24.8613 13.9768C21.833 14.4763 19.1619 16.2704 17.5389 18.8899L19.239 19.9433ZM33.5428 15.1887C31.032 13.2664 27.8377 12.4717 24.7083 12.9878L25.0338 14.9612C27.6208 14.5345 30.2568 15.1918 32.327 16.7767L33.5428 15.1887ZM25.1868 15.9502C27.5036 15.5681 29.864 16.1567 31.7177 17.5759L32.9335 15.9879C30.6392 14.2313 27.7205 13.5053 24.8614 13.9768L25.1868 15.9502Z" fill="black" mask="url(#path-15-inside-2_104_741)"/>
<path d="M18.5292 18.4765L17.5797 17.5735C17.4023 17.4048 17.1671 17.3073 16.9194 17.2999L15.709 17.2637" stroke="black" stroke-width="0.5" stroke-linecap="round"/>
<path d="M19.791 16.662L18.8415 15.759C18.664 15.5903 18.4289 15.4928 18.1811 15.4854L16.9707 15.4492" stroke="black" stroke-width="0.5" stroke-linecap="round"/>
<path d="M22.4999 15.1396L21.5505 14.2367C21.373 14.0679 21.1379 13.9705 20.8901 13.9631L19.6797 13.9268" stroke="black" stroke-width="0.5" stroke-linecap="round"/>
<path d="M25.5077 14.1483L24.5583 13.2454C24.3808 13.0766 24.1457 12.9792 23.8979 12.9718L22.6875 12.9355" stroke="black" stroke-width="0.5" stroke-linecap="round"/>
<path d="M28.2774 14.6405L27.7327 13.6712C27.6033 13.441 27.3856 13.2724 27.1278 13.2028L25.8496 12.8574" stroke="black" stroke-width="0.5" stroke-linecap="round"/>
<path d="M21.285 19.3202L20.3355 18.4172C20.1581 18.2484 19.9229 18.151 19.6752 18.1436L18.4648 18.1074" stroke="black" stroke-width="0.5" stroke-linecap="round"/>
<path d="M22.6112 17.8749L21.6617 16.9719C21.4843 16.8032 21.2491 16.7058 21.0014 16.6983L19.791 16.6621" stroke="black" stroke-width="0.5" stroke-linecap="round"/>
<path d="M24.8649 16.5586L24.5779 16.0478C24.4587 15.8358 24.2643 15.6755 24.0315 15.5971L22.8984 15.2158" stroke="black" stroke-width="0.5" stroke-linecap="round"/>
<path d="M26.531 15.9717L26.4145 15.3475C26.3751 15.1363 26.2671 14.9443 26.1067 14.8004L25.6348 14.377" stroke="black" stroke-width="0.5" stroke-linecap="round"/>
<path d="M28.6039 15.856L28.5856 15.4061C28.5793 15.2523 28.5369 15.1024 28.4615 14.9684L28.2773 14.6406" stroke="black" stroke-width="0.5" stroke-linecap="round"/>
<path d="M34.3496 18.6606C34.3496 18.6606 34.3505 18.6601 34.3525 18.6587M34.4461 17.1842C34.5002 17.7179 34.5543 18.0994 34.6097 18.3623C34.7265 18.2056 34.855 18.0167 35.0067 17.7937C35.0892 17.6725 35.1786 17.5412 35.2767 17.3994C36.3897 15.791 38.3686 13.2196 41.9376 12.8578C43.6688 12.6822 45.4394 12.8762 47.0895 13.1633C47.9157 13.307 48.7186 13.4755 49.4736 13.6347L49.5454 13.6499C50.2769 13.8042 50.959 13.9481 51.5871 14.0555C52.2367 14.1666 52.8092 14.2351 53.2984 14.2374C53.7912 14.2397 54.1626 14.1743 54.4317 14.0473C54.6838 13.9283 54.865 13.7475 54.9805 13.4578C55.1029 13.1507 55.1608 12.6952 55.093 12.0265C54.9542 10.6568 54.6143 9.61439 54.1091 8.82407C53.6075 8.03939 52.9264 7.47686 52.0576 7.08816C50.2889 6.29683 47.7474 6.22581 44.4226 6.56291C37.9787 7.21623 33.9022 11.8196 34.4461 17.1842Z" stroke="black"/>
<path d="M40.0273 10.7223C37.9117 11.8775 36.2878 13.7527 35.4533 16.006L35.4485 16.0045C36.2827 13.7514 37.9076 11.8756 40.0268 10.7212L40.0273 10.7223ZM41.1715 10.1878C41.0899 10.2198 41.0087 10.253 40.9278 10.2872L40.9277 10.287C41.0086 10.2528 41.0899 10.2198 41.1715 10.1878ZM35.1369 16.9548L35.1416 16.9562L34.8422 17.9093L34.8375 17.9079L35.1369 16.9548Z" fill="#FFF6F5" stroke="black"/>
<path d="M48.0273 10.0775L48.2843 8.79266C48.3324 8.55253 48.4687 8.33755 48.667 8.18893L49.6362 7.46289" stroke="black" stroke-width="0.5" stroke-linecap="round"/>
<path d="M45.9512 9.31968L46.2082 8.03485C46.2562 7.79473 46.3925 7.57975 46.5909 7.43112L47.56 6.70508" stroke="black" stroke-width="0.5" stroke-linecap="round"/>
<path d="M42.8594 9.63316L43.1165 8.34833C43.1645 8.10821 43.3008 7.89322 43.4992 7.7446L44.4683 7.01855" stroke="black" stroke-width="0.5" stroke-linecap="round"/>
<path d="M39.8301 10.5531L40.0871 9.26825C40.1351 9.02813 40.2714 8.81315 40.4698 8.66452L41.4389 7.93848" stroke="black" stroke-width="0.5" stroke-linecap="round"/>
<path d="M37.8456 12.5495L37.7335 11.4433C37.7069 11.1806 37.7879 10.9175 37.9587 10.7122L38.8055 9.69434" stroke="black" stroke-width="0.5" stroke-linecap="round"/>
<path d="M46.2578 12.3528L46.5148 11.068C46.5628 10.8279 46.6991 10.6129 46.8975 10.4643L47.8666 9.73828" stroke="black" stroke-width="0.5" stroke-linecap="round"/>
<path d="M44.3418 11.934L44.5988 10.6491C44.6469 10.409 44.7831 10.194 44.9815 10.0454L45.9506 9.31934" stroke="black" stroke-width="0.5" stroke-linecap="round"/>
<path d="M41.7398 12.1546L41.6807 11.5716C41.6562 11.3297 41.723 11.0867 41.8683 10.8886L42.5757 9.9248" stroke="black" stroke-width="0.5" stroke-linecap="round"/>
<path d="M40.0394 12.6334L39.7755 12.0559C39.6863 11.8605 39.6641 11.6413 39.7125 11.4313L39.8549 10.8135" stroke="black" stroke-width="0.5" stroke-linecap="round"/>
<path d="M38.2778 13.7317L38.034 13.3533C37.9506 13.2238 37.8991 13.0768 37.8836 12.9239L37.8457 12.5498" stroke="black" stroke-width="0.5" stroke-linecap="round"/>
</svg>
