<svg width="68" height="84" viewBox="0 0 68 84" fill="none" xmlns="http://www.w3.org/2000/svg">
<path d="M33.061 66.6522C33.2921 66.2789 33.6794 66.0131 34.1461 65.9077L34.4065 65.8488L35.3372 65.6386C36.0071 65.4872 36.5629 65.1058 36.8946 64.5699L66.6802 16.4477C67.4106 15.2676 66.8801 13.6703 65.4954 12.88L45.4378 1.43104C44.0531 0.64063 42.3386 0.956467 41.6082 2.1365L11.8226 50.2587C11.4909 50.7946 11.4078 51.4459 11.5894 52.0833L11.8417 52.9688L11.9123 53.2166C12.0388 53.6606 11.9809 54.1144 11.7498 54.4878" stroke="black"/>
<path d="M37.5859 63.4521L22.5427 54.8655" stroke="black" stroke-linecap="round"/>
<path d="M17.5293 52.0029L12.515 49.1407" stroke="black" stroke-linecap="round"/>
<mask id="mask0_194_538" style="mask-type:luminance" maskUnits="userSpaceOnUse" x="9" y="53" width="26" height="17">
<path d="M34.2804 68.794C33.9152 69.384 33.0579 69.5419 32.3655 69.1467L9.80071 56.2667C9.10847 55.8716 8.84315 55.0728 9.20833 54.4829C9.57351 53.8929 10.4309 53.735 11.1232 54.1301L33.688 67.0102C34.3803 67.4054 34.6455 68.204 34.2804 68.794Z" fill="white"/>
</mask>
<g mask="url(#mask0_194_538)">
<path d="M33.6888 67.0099L11.1239 54.1298L8.47905 58.403L31.0439 71.283L33.6888 67.0099ZM9.8015 56.2664L32.3663 69.1464L35.0112 64.8733L12.4464 51.9932L9.8015 56.2664ZM32.3663 69.1464C31.674 68.7512 31.4088 67.9526 31.774 67.3626L36.7884 70.2248C37.8839 68.4548 37.0883 66.0588 35.0112 64.8733L32.3663 69.1464ZM11.7163 55.9137C11.3511 56.5037 10.4937 56.6615 9.8015 56.2664L12.4464 51.9932C10.3694 50.8077 7.79748 51.2814 6.70192 53.0514L11.7163 55.9137ZM11.1239 54.1298C11.8162 54.5249 12.0815 55.3237 11.7163 55.9137L6.70192 53.0514C5.60636 54.8214 6.40208 57.2174 8.47905 58.403L11.1239 54.1298ZM31.0439 71.283C33.1209 72.4686 35.6928 71.9948 36.7884 70.2248L31.774 67.3626C32.1391 66.7726 32.9964 66.6147 33.6888 67.0099L31.0439 71.283Z" fill="black"/>
</g>
<path d="M28.6042 67L27.3328 69.0541C27.1537 69.3435 26.9075 69.5904 26.6091 69.78L16.2127 76.3869C15.9892 76.5289 15.7395 76.6368 15.4721 76.7069L14.9005 76.8567C13.2841 77.2804 11.4781 76.2495 11.0932 74.6835L10.9812 74.2278C10.9018 73.9048 10.8895 73.5774 10.9449 73.2631L12.211 66.0761" stroke="black"/>
</svg>
