<svg width="30" height="30" viewBox="0 0 61 73" fill="none" xmlns="http://www.w3.org/2000/svg">
<path d="M34.2129 69.1426L44.4278 60.7212" stroke="black" stroke-width="2"/>
<path d="M44.4257 60.7221L58.8281 69.1433" stroke="black" stroke-width="2"/>
<path d="M45.5436 32.7836C45.5436 32.2311 45.0961 31.7795 44.5439 31.7747C43.9918 31.77 43.5442 32.214 43.5442 32.7664L45.5436 32.7836ZM45.5434 61.3941L45.5436 32.7836L43.5442 32.7664L43.544 61.377L45.5434 61.3941Z" fill="black"/>
<path d="M59.218 69.525L47.887 2.91354" stroke="black" stroke-width="2"/>
<path d="M40.2632 21.488C40.3428 20.9415 40.8475 20.5809 41.3903 20.6826C41.9331 20.7843 42.3085 21.3098 42.2288 21.8564L40.2632 21.488ZM33.23 69.724L40.2632 21.488L42.2288 21.8564L35.1957 70.0924L33.23 69.724Z" fill="black"/>
<path d="M1.78045 69.9088L6.07869 16.6962" stroke="black" stroke-width="2"/>
<path d="M27.9578 17.6182H42.1018C43.3288 17.6182 44.4321 16.871 44.8875 15.7317L46.9772 10.5039C47.0607 10.2951 47.1035 10.0723 47.1035 9.84739V9.84739C47.1035 9.56789 47.0373 9.29236 46.9102 9.0434L46.8308 8.88762C46.7548 8.73873 46.6269 8.62283 46.4712 8.56183V8.56183C45.6181 8.22749 44.684 8.81036 44.6094 9.7236L44.1334 15.5474V15.5474C44.0061 16.3881 42.7762 16.3316 42.7266 15.4827L42.3156 8.44976C42.2311 7.00307 42.7567 5.58717 43.7647 4.5461V4.5461C44.0072 4.2957 44.3045 4.10503 44.6332 3.9891L47.8729 2.84647V2C47.8729 1.44772 47.4251 1 46.8729 1H28.6569H7.56706C5.81465 1 4.31889 2.26648 4.02997 3.99491L3.60815 6.51846C3.0486 9.86586 3.32353 13.2996 4.40856 16.5153V16.5153C4.47191 16.7031 4.64416 16.8326 4.84211 16.8413L18.9711 17.4615" stroke="black" stroke-width="2"/>
<path d="M1 69.5068L59.2133 69.1426H60V69.6478C60 69.8169 59.9458 69.9817 59.8453 70.1178V70.1178C59.6968 70.3189 59.4619 70.438 59.2119 70.439L2.00404 70.6698C1.45018 70.6721 1 70.2237 1 69.6698V69.5068Z" fill="black"/>
<path d="M19.4877 18.8341L19.8036 18.9609L19.9186 19.317L20.1578 20.0574L20.7869 20.3359L21.0862 20.4684L21.1966 20.8099L21.4358 21.5502L22.0649 21.8287L22.2874 21.9272L22.4126 22.1579L22.8078 22.8862C22.8897 23.0371 23.0758 23.0587 23.1805 22.9294L29.7041 14.8654C29.7909 14.758 29.7837 14.5904 29.6879 14.491L25.6166 10.2668C25.5208 10.1674 25.3727 10.1738 25.2859 10.2811L18.88 18.1996C18.7671 18.3391 18.8184 18.5653 18.9773 18.6292L19.4877 18.8341Z" stroke="black" stroke-width="1.5"/>
</svg>
