<svg width="98" height="80" viewBox="0 0 98 80" fill="none" xmlns="http://www.w3.org/2000/svg">
<path d="M3.19357 39.5715L76.3646 1.36867C77.0989 0.985257 78.0051 1.26976 78.3885 2.00412L96.6311 36.9448C97.0146 37.6792 96.7301 38.5853 95.9957 38.9687L22.5122 77.3347C21.5653 77.8291 20.4197 77.2034 20.324 76.1395L19.5534 67.5778C19.5079 67.0718 19.3093 66.5917 18.9841 66.2014L12.3472 58.2372C12.1226 57.9676 11.9995 57.6278 11.9995 57.2768L11.9999 49.5583C12 48.7308 11.5905 47.9568 10.9064 47.4913L3.04395 42.1413C2.10656 41.5034 2.18849 40.0962 3.19357 39.5715Z" fill="white" stroke="black"/>
</svg>
